<svg width="28" height="12" viewBox="0 0 28 12" fill="none" xmlns="http://www.w3.org/2000/svg">
<path d="M27.6024 4.9581C24.8836 3.32389 21.5326 2.53711 18.6991 2.60914L16.3303 0.240267C16.01 -0.0800889 15.4905 -0.0800889 15.1702 0.240267C14.8498 0.560622 14.8498 1.07998 15.1702 1.40034L17.073 3.30311C15.312 4.27156 13.5289 4.3175 12.0236 4.02372C11.9681 3.82997 11.9546 3.78321 11.2886 1.46864C11.1634 1.03323 10.7091 0.781666 10.2735 0.906954C9.83816 1.03219 9.58666 1.48663 9.71184 1.922L10.157 3.46936C9.1863 3.12598 8.18449 2.88645 7.16102 2.75247C7.29807 2.4489 7.38305 2.09781 7.38305 1.69532C7.38305 1.24229 7.01577 0.875017 6.56275 0.875017C6.10972 0.875017 5.74245 1.24229 5.74245 1.69532C5.74245 2.26795 5.26054 2.54668 5.0605 2.63774C5.00275 2.64758 3.54835 2.93879 0.659958 3.5159C0.0125752 3.64523 -0.226352 4.45236 0.252596 4.91206L1.09702 5.72273L0.488242 6.53811C0.301923 6.7877 0.272939 7.12135 0.413649 7.39927C1.07421 8.70459 2.39277 9.51548 3.85476 9.51548H4.56504C4.90825 10.5316 5.86987 11.2655 7.0003 11.2655C8.13073 11.2655 9.09234 10.5316 9.43556 9.51548H18.5648C18.908 10.5316 19.8696 11.2655 21.0001 11.2655C22.1305 11.2655 23.0921 10.5316 23.4353 9.51548H24.1456C26.2709 9.51548 27.9999 7.78645 27.9999 5.66116C28.0001 5.37328 27.8491 5.10641 27.6024 4.9581ZM7.0003 9.62486C6.48766 9.62486 6.07062 9.20782 6.07062 8.69518C6.07062 8.18255 6.48766 7.76551 7.0003 7.76551C7.51293 7.76551 7.92997 8.18255 7.92997 8.69518C7.92997 9.20782 7.51293 9.62486 7.0003 9.62486ZM21.0001 9.62486C20.4875 9.62486 20.0705 9.20782 20.0705 8.69518C20.0705 8.18255 20.4875 7.76551 21.0001 7.76551C21.5128 7.76551 21.9298 8.18255 21.9298 8.69518C21.9298 9.20782 21.5128 9.62486 21.0001 9.62486ZM24.1457 7.87488H23.4354C23.0922 6.8588 22.1306 6.1249 21.0002 6.1249C19.8698 6.1249 18.9081 6.8588 18.5649 7.87488H9.43561C9.0924 6.8588 8.13078 6.1249 7.00035 6.1249C5.86992 6.1249 4.90831 6.8588 4.56509 7.87488H3.85476C3.17938 7.87488 2.55721 7.57355 2.14203 7.0654L2.84519 6.12348C3.09281 5.7918 3.05453 5.32762 2.75594 5.04101L2.52237 4.81679L5.28001 4.26582C6.85839 4.27501 8.39481 4.55632 9.84795 5.10231C9.90991 5.12561 9.97171 5.14732 10.0336 5.16947L9.76663 5.70326C9.56396 6.10844 9.72813 6.60117 10.1333 6.80384C10.54 7.00727 11.032 6.84081 11.2339 6.43711L11.6423 5.62063C14.1533 6.12687 16.5766 5.68287 18.6553 4.25171C21.0083 4.16902 23.9209 4.78961 26.3139 6.10888C26.1062 7.11566 25.2129 7.87488 24.1457 7.87488Z" fill="black"/>
</svg>
