<svg width="22" height="22" viewBox="0 0 22 22" fill="none" xmlns="http://www.w3.org/2000/svg">
<path d="M19.3053 4.38983C20.2413 4.38983 21.0002 3.63099 21.0002 2.69492C21.0002 1.75884 20.2413 1 19.3053 1C18.3692 1 17.6104 1.75884 17.6104 2.69492C17.6104 3.63099 18.3692 4.38983 19.3053 4.38983Z" stroke="black" stroke-width="2" stroke-miterlimit="10" stroke-linecap="round" stroke-linejoin="round"/>
<path d="M10.9996 4.38983C11.9357 4.38983 12.6945 3.63099 12.6945 2.69492C12.6945 1.75884 11.9357 1 10.9996 1C10.0635 1 9.30469 1.75884 9.30469 2.69492C9.30469 3.63099 10.0635 4.38983 10.9996 4.38983Z" stroke="black" stroke-width="2" stroke-miterlimit="10" stroke-linecap="round" stroke-linejoin="round"/>
<path d="M2.69492 4.38983C3.63099 4.38983 4.38983 3.63099 4.38983 2.69492C4.38983 1.75884 3.63099 1 2.69492 1C1.75884 1 1 1.75884 1 2.69492C1 3.63099 1.75884 4.38983 2.69492 4.38983Z" stroke="black" stroke-width="2" stroke-miterlimit="10" stroke-linecap="round" stroke-linejoin="round"/>
<path d="M2.69492 21C3.63099 21 4.38983 20.2412 4.38983 19.3051C4.38983 18.369 3.63099 17.6102 2.69492 17.6102C1.75884 17.6102 1 18.369 1 19.3051C1 20.2412 1.75884 21 2.69492 21Z" stroke="black" stroke-width="2" stroke-miterlimit="10" stroke-linecap="round" stroke-linejoin="round"/>
<path d="M10.9996 21C11.9357 21 12.6945 20.2412 12.6945 19.3051C12.6945 18.369 11.9357 17.6102 10.9996 17.6102C10.0635 17.6102 9.30469 18.369 9.30469 19.3051C9.30469 20.2412 10.0635 21 10.9996 21Z" stroke="black" stroke-width="2" stroke-miterlimit="10" stroke-linecap="round" stroke-linejoin="round"/>
<path d="M19.3055 4.38983V9.13559C19.3055 10.0717 18.5466 10.8305 17.6106 10.8305H2.69531V17.6102" stroke="black" stroke-width="2" stroke-miterlimit="10" stroke-linecap="round" stroke-linejoin="round"/>
<path d="M2.69531 10.8305V4.38983" stroke="black" stroke-width="2" stroke-miterlimit="10" stroke-linecap="round" stroke-linejoin="round"/>
<path d="M11 4.38983V17.6102" stroke="black" stroke-width="2" stroke-miterlimit="10" stroke-linecap="round" stroke-linejoin="round"/>
<path d="M19.3053 21C20.2413 21 21.0002 20.2412 21.0002 19.3051C21.0002 18.369 20.2413 17.6102 19.3053 17.6102C18.3692 17.6102 17.6104 18.369 17.6104 19.3051C17.6104 20.2412 18.3692 21 19.3053 21Z" stroke="black" stroke-width="2" stroke-miterlimit="10" stroke-linecap="round" stroke-linejoin="round"/>
<path d="M19.3047 14.2203V17.6102" stroke="black" stroke-width="2" stroke-miterlimit="10" stroke-linecap="round" stroke-linejoin="round"/>
</svg>
