<svg width="172" height="50" viewBox="0 0 172 50" fill="none" xmlns="http://www.w3.org/2000/svg">
<path d="M165.079 50H6.34921C2.85873 50 0 47.1859 0 43.75V6.25C0 2.81406 2.85873 0 6.34921 0H165.079C168.57 0 171.429 2.81406 171.429 6.25V43.75C171.429 47.1859 168.57 50 165.079 50Z" fill="white"/>
<path d="M165.079 1.00156C168.019 1.00156 170.411 3.35625 170.411 6.25V43.75C170.411 46.6438 168.019 48.9984 165.079 48.9984H6.34921C3.40952 48.9984 1.01746 46.6438 1.01746 43.75V6.25C1.01746 3.35625 3.40952 1.00156 6.34921 1.00156H165.079ZM165.079 0H6.34921C2.85873 0 0 2.81406 0 6.25V43.75C0 47.1859 2.85873 50 6.34921 50H165.079C168.57 50 171.429 47.1859 171.429 43.75V6.25C171.429 2.81406 168.57 0 165.079 0Z" fill="#A6A6A6"/>
<path d="M12.2984 9.42343C11.9253 9.8078 11.7095 10.4062 11.7095 11.1812V38.825C11.7095 39.6 11.9253 40.1984 12.2984 40.5828L12.3904 40.6672L28.1269 25.1828V24.8172L12.3904 9.3328L12.2984 9.42343Z" fill="black"/>
<path d="M35.2714 30.3469L30.0317 25.1828V24.8172L35.2778 19.6531L35.3952 19.7203L41.6079 23.2C43.3809 24.1875 43.3809 25.8125 41.6079 26.8062L35.3952 30.2797L35.2714 30.3469Z" fill="black"/>
<path d="M34.4425 31.2412L29.0791 25.9615L13.2505 41.5443C13.8394 42.1537 14.7997 42.2272 15.8918 41.6178L34.4425 31.2412Z" fill="black"/>
<path d="M34.4425 18.7588L15.8918 8.38221C14.7997 7.77909 13.8394 7.85252 13.2505 8.4619L29.0791 24.0385L34.4425 18.7588Z" fill="black"/>
<path d="M60.2128 12.8047C60.2128 13.8484 59.8954 14.6844 59.27 15.3078C58.5509 16.0469 57.6144 16.4187 56.4668 16.4187C55.37 16.4187 54.4334 16.0406 53.6652 15.2953C52.8954 14.5391 52.5112 13.6109 52.5112 12.5C52.5112 11.3891 52.8954 10.4609 53.6652 9.71094C54.4334 8.95938 55.37 8.58125 56.4668 8.58125C57.0128 8.58125 57.5334 8.69219 58.0303 8.89844C58.5255 9.10625 58.9287 9.3875 59.2207 9.73438L58.5573 10.3938C58.0477 9.80157 57.3541 9.50938 56.4668 9.50938C55.6668 9.50938 54.9731 9.78438 54.3842 10.3391C53.8017 10.8953 53.5096 11.6156 53.5096 12.5C53.5096 13.3844 53.8017 14.1109 54.3842 14.6672C54.9731 15.2156 55.6668 15.4969 56.4668 15.4969C57.316 15.4969 58.0303 15.2156 58.5938 14.6609C58.9652 14.2938 59.1763 13.7875 59.2319 13.1406H56.4668V12.2375H60.1557C60.2001 12.4328 60.2128 12.6219 60.2128 12.8047Z" fill="black" stroke="black" stroke-width="0.16" stroke-miterlimit="10"/>
<path d="M66.0652 9.67343H62.6001V12.0484H65.7239V12.9516H62.6001V15.3266H66.0652V16.2469H61.6191V8.75312H66.0652V9.67343Z" fill="black" stroke="black" stroke-width="0.16" stroke-miterlimit="10"/>
<path d="M70.1952 16.2469H69.2143V9.67343H67.0889V8.75312H72.3222V9.67343H70.1952V16.2469Z" fill="black" stroke="black" stroke-width="0.16" stroke-miterlimit="10"/>
<path d="M76.1099 16.2469V8.75312H77.0892V16.2469H76.1099Z" fill="black" stroke="black" stroke-width="0.16" stroke-miterlimit="10"/>
<path d="M81.4301 16.2469H80.4571V9.67343H78.3237V8.75312H83.5634V9.67343H81.4301V16.2469Z" fill="black" stroke="black" stroke-width="0.16" stroke-miterlimit="10"/>
<path d="M93.4717 15.2828C92.7209 16.0406 91.7908 16.4187 90.6812 16.4187C89.5654 16.4187 88.6352 16.0406 87.8844 15.2828C87.1352 14.5266 86.7622 13.5984 86.7622 12.5C86.7622 11.4016 87.1352 10.4734 87.8844 9.71719C88.6352 8.95938 89.5654 8.58125 90.6812 8.58125C91.7844 8.58125 92.7146 8.95938 93.4654 9.72344C94.2209 10.4859 94.594 11.4078 94.594 12.5C94.594 13.5984 94.2209 14.5266 93.4717 15.2828ZM88.6098 14.6547C89.1749 15.2156 89.8622 15.4969 90.6812 15.4969C91.4939 15.4969 92.1876 15.2156 92.7463 14.6547C93.3098 14.0938 93.5955 13.3734 93.5955 12.5C93.5955 11.6266 93.3098 10.9063 92.7463 10.3453C92.1876 9.78438 91.4939 9.50313 90.6812 9.50313C89.8622 9.50313 89.1749 9.78438 88.6098 10.3453C88.0463 10.9063 87.7606 11.6266 87.7606 12.5C87.7606 13.3734 88.0463 14.0938 88.6098 14.6547Z" fill="black" stroke="black" stroke-width="0.16" stroke-miterlimit="10"/>
<path d="M95.9697 16.2469V8.75312H97.1602L100.862 14.5812H100.905L100.862 13.1406V8.75312H101.841V16.2469H100.819L96.9427 10.1312H96.8999L96.9427 11.5781V16.2469H95.9697Z" fill="black" stroke="black" stroke-width="0.16" stroke-miterlimit="10"/>
<path d="M86.5206 27.1906C83.5381 27.1906 81.1016 29.425 81.1016 32.5078C81.1016 35.5656 83.5381 37.8235 86.5206 37.8235C89.5095 37.8235 91.946 35.5656 91.946 32.5078C91.946 29.425 89.5095 27.1906 86.5206 27.1906ZM86.5206 35.7297C84.8841 35.7297 83.4762 34.4 83.4762 32.5078C83.4762 30.5906 84.8841 29.2844 86.5206 29.2844C88.1571 29.2844 89.5714 30.5906 89.5714 32.5078C89.5714 34.4 88.1571 35.7297 86.5206 35.7297ZM74.6968 27.1906C71.7079 27.1906 69.2777 29.425 69.2777 32.5078C69.2777 35.5656 71.7079 37.8235 74.6968 37.8235C77.6841 37.8235 80.1158 35.5656 80.1158 32.5078C80.1158 29.425 77.6841 27.1906 74.6968 27.1906ZM74.6968 35.7297C73.0587 35.7297 71.646 34.4 71.646 32.5078C71.646 30.5906 73.0587 29.2844 74.6968 29.2844C76.3333 29.2844 77.7412 30.5906 77.7412 32.5078C77.7412 34.4 76.3333 35.7297 74.6968 35.7297ZM60.627 28.8203V31.0797H66.1079C65.9476 32.3422 65.519 33.2703 64.8619 33.9172C64.0619 34.6985 62.8158 35.5656 60.627 35.5656C57.2539 35.5656 54.6127 32.886 54.6127 29.5656C54.6127 26.2453 57.2539 23.5656 60.627 23.5656C62.4508 23.5656 63.7777 24.2672 64.7571 25.1766L66.3746 23.5844C65.0047 22.2969 63.1825 21.3078 60.627 21.3078C56.0016 21.3078 52.1143 25.0125 52.1143 29.5656C52.1143 34.1188 56.0016 37.8235 60.627 37.8235C63.127 37.8235 65.0047 37.0172 66.4809 35.5047C67.9936 34.0156 68.465 31.9219 68.465 30.2313C68.465 29.7063 68.4206 29.2235 68.3412 28.8203H60.627ZM118.16 30.5719C117.714 29.3828 116.338 27.1906 113.535 27.1906C110.757 27.1906 108.444 29.3453 108.444 32.5078C108.444 35.486 110.733 37.8235 113.802 37.8235C116.282 37.8235 117.714 36.3344 118.303 35.4672L116.462 34.2594C115.848 35.1438 115.011 35.7297 113.802 35.7297C112.6 35.7297 111.738 35.1875 111.186 34.1188L118.409 31.1766L118.16 30.5719ZM110.795 32.3422C110.733 30.2922 112.413 29.2422 113.616 29.2422C114.559 29.2422 115.359 29.7063 115.625 30.3703L110.795 32.3422ZM104.924 37.5H107.298V21.875H104.924V37.5ZM101.035 28.375H100.956C100.422 27.7531 99.4047 27.1906 98.1158 27.1906C95.4111 27.1906 92.9381 29.5281 92.9381 32.525C92.9381 35.5047 95.4111 37.8235 98.1158 37.8235C99.4047 37.8235 100.422 37.2563 100.956 36.6156H101.035V37.3781C101.035 39.411 99.9317 40.5031 98.1523 40.5031C96.7015 40.5031 95.8015 39.4719 95.4301 38.6047L93.365 39.4531C93.9603 40.8625 95.5365 42.5969 98.1523 42.5969C100.936 42.5969 103.286 40.9844 103.286 37.061V27.5141H101.035V28.375ZM98.319 35.7297C96.6825 35.7297 95.3126 34.3813 95.3126 32.525C95.3126 30.6516 96.6825 29.2844 98.319 29.2844C99.9317 29.2844 101.203 30.6516 101.203 32.525C101.203 34.3813 99.9317 35.7297 98.319 35.7297ZM129.278 21.875H123.598V37.5H125.967V31.5797H129.278C131.908 31.5797 134.487 29.7063 134.487 26.7266C134.487 23.7485 131.902 21.875 129.278 21.875ZM129.34 29.4063H125.967V24.0485H129.34C131.108 24.0485 132.117 25.4938 132.117 26.7266C132.117 27.936 131.108 29.4063 129.34 29.4063ZM143.979 27.161C142.268 27.161 140.489 27.9047 139.757 29.5531L141.859 30.4203C142.311 29.5531 143.143 29.2719 144.022 29.2719C145.251 29.2719 146.497 29.9985 146.516 31.2813V31.4453C146.087 31.2016 145.17 30.8406 144.041 30.8406C141.778 30.8406 139.471 32.0672 139.471 34.3563C139.471 36.45 141.325 37.7985 143.409 37.7985C145.003 37.7985 145.882 37.0906 146.435 36.2672H146.516V37.475H148.803V31.4813C148.803 28.711 146.702 27.161 143.979 27.161ZM143.694 35.7235C142.919 35.7235 141.84 35.3453 141.84 34.4C141.84 33.1906 143.186 32.7266 144.351 32.7266C145.394 32.7266 145.882 32.9531 146.516 33.2516C146.33 34.6985 145.065 35.7235 143.694 35.7235ZM157.136 27.5031L154.414 34.2766H154.333L151.519 27.5031H148.965L153.194 36.9688L150.781 42.236H153.255L159.771 27.5031H157.136ZM135.789 37.5H138.163V21.875H135.789V37.5Z" fill="black"/>
</svg>
